<?xml version="1.0" encoding="UTF-8" standalone="no"?>
<!DOCTYPE svg PUBLIC "-//W3C//DTD SVG 1.1//EN"
 "http://www.w3.org/Graphics/SVG/1.1/DTD/svg11.dtd">
<!-- Generated by graphviz version 2.40.1 (20161225.0304)
 -->
<!-- Title: %3 Pages: 1 -->
<svg width="542pt" height="512pt"
 viewBox="0.00 0.00 542.00 512.00" xmlns="http://www.w3.org/2000/svg" xmlns:xlink="http://www.w3.org/1999/xlink">
<g id="graph0" class="graph" transform="scale(1 1) rotate(0) translate(4 508)">
<title>%3</title>
<polygon fill="#ffffff" stroke="transparent" points="-4,4 -4,-508 538,-508 538,4 -4,4"/>
<g id="clust1" class="cluster">
<title>cluster_11</title>
<polygon fill="none" stroke="#000000" points="8,-119 8,-385 526,-385 526,-119 8,-119"/>
</g>
<!-- 12 -->
<g id="12" class="node">
<title>12</title>
<polygon fill="none" stroke="#000000" points="141,-360 33,-360 33,-288 141,-288 141,-360"/>
<text text-anchor="middle" x="87" y="-323" font-family="Times,serif" font-size="5.00" fill="#000000">12: Sign In Controller</text>
</g>
<!-- 15 -->
<g id="15" class="node">
<title>15</title>
<polygon fill="none" stroke="#000000" points="141,-216 33,-216 33,-144 141,-144 141,-216"/>
<text text-anchor="middle" x="87" y="-179" font-family="Times,serif" font-size="5.00" fill="#000000">15: Security Component</text>
</g>
<!-- 12&#45;&gt;15 -->
<g id="40" class="edge">
<title>12&#45;&gt;15</title>
<path fill="none" stroke="#000000" d="M87,-287.6627C87,-269.0027 87,-246.0673 87,-226.1671"/>
<polygon fill="#000000" stroke="#000000" points="90.5001,-226.0759 87,-216.076 83.5001,-226.076 90.5001,-226.0759"/>
</g>
<!-- 13 -->
<g id="13" class="node">
<title>13</title>
<polygon fill="none" stroke="#000000" points="501,-360 393,-360 393,-288 501,-288 501,-360"/>
<text text-anchor="middle" x="447" y="-323" font-family="Times,serif" font-size="5.00" fill="#000000">13: Accounts Summary Controller</text>
</g>
<!-- 16 -->
<g id="16" class="node">
<title>16</title>
<polygon fill="none" stroke="#000000" points="501,-216 393,-216 393,-144 501,-144 501,-216"/>
<text text-anchor="middle" x="447" y="-179" font-family="Times,serif" font-size="5.00" fill="#000000">16: Mainframe Banking System Facade</text>
</g>
<!-- 13&#45;&gt;16 -->
<g id="41" class="edge">
<title>13&#45;&gt;16</title>
<path fill="none" stroke="#000000" d="M447,-287.6627C447,-269.0027 447,-246.0673 447,-226.1671"/>
<polygon fill="#000000" stroke="#000000" points="450.5001,-226.0759 447,-216.076 443.5001,-226.076 450.5001,-226.0759"/>
</g>
<!-- 14 -->
<g id="14" class="node">
<title>14</title>
<polygon fill="none" stroke="#000000" points="321,-360 213,-360 213,-288 321,-288 321,-360"/>
<text text-anchor="middle" x="267" y="-323" font-family="Times,serif" font-size="5.00" fill="#000000">14: Reset Password Controller</text>
</g>
<!-- 14&#45;&gt;15 -->
<g id="42" class="edge">
<title>14&#45;&gt;15</title>
<path fill="none" stroke="#000000" d="M221.5784,-287.6627C196.7555,-267.8044 165.8797,-243.1038 139.9658,-222.3726"/>
<polygon fill="#000000" stroke="#000000" points="142.0901,-219.5899 132.095,-216.076 137.7172,-225.056 142.0901,-219.5899"/>
</g>
<!-- 17 -->
<g id="17" class="node">
<title>17</title>
<polygon fill="none" stroke="#000000" points="321,-216 213,-216 213,-144 321,-144 321,-216"/>
<text text-anchor="middle" x="267" y="-179" font-family="Times,serif" font-size="5.00" fill="#000000">17: E&#45;mail Component</text>
</g>
<!-- 14&#45;&gt;17 -->
<g id="43" class="edge">
<title>14&#45;&gt;17</title>
<path fill="none" stroke="#000000" d="M267,-287.6627C267,-269.0027 267,-246.0673 267,-226.1671"/>
<polygon fill="#000000" stroke="#000000" points="270.5001,-226.0759 267,-216.076 263.5001,-226.076 270.5001,-226.0759"/>
</g>
<!-- 18 -->
<g id="18" class="node">
<title>18</title>
<polygon fill="none" stroke="#000000" points="141,-72 33,-72 33,0 141,0 141,-72"/>
<text text-anchor="middle" x="87" y="-35" font-family="Times,serif" font-size="5.00" fill="#000000">18: Database</text>
</g>
<!-- 15&#45;&gt;18 -->
<g id="44" class="edge">
<title>15&#45;&gt;18</title>
<path fill="none" stroke="#000000" d="M87,-143.6627C87,-125.0027 87,-102.0673 87,-82.1671"/>
<polygon fill="#000000" stroke="#000000" points="90.5001,-82.0759 87,-72.076 83.5001,-82.076 90.5001,-82.0759"/>
</g>
<!-- 4 -->
<g id="4" class="node">
<title>4</title>
<polygon fill="none" stroke="#000000" points="501,-72 393,-72 393,0 501,0 501,-72"/>
<text text-anchor="middle" x="447" y="-35" font-family="Times,serif" font-size="5.00" fill="#000000">4: Mainframe Banking System</text>
</g>
<!-- 16&#45;&gt;4 -->
<g id="46" class="edge">
<title>16&#45;&gt;4</title>
<path fill="none" stroke="#000000" d="M447,-143.6627C447,-125.0027 447,-102.0673 447,-82.1671"/>
<polygon fill="#000000" stroke="#000000" points="450.5001,-82.0759 447,-72.076 443.5001,-82.076 450.5001,-82.0759"/>
</g>
<!-- 5 -->
<g id="5" class="node">
<title>5</title>
<polygon fill="none" stroke="#000000" points="321,-72 213,-72 213,0 321,0 321,-72"/>
<text text-anchor="middle" x="267" y="-35" font-family="Times,serif" font-size="5.00" fill="#000000">5: E&#45;mail System</text>
</g>
<!-- 17&#45;&gt;5 -->
<g id="48" class="edge">
<title>17&#45;&gt;5</title>
<path fill="none" stroke="#000000" d="M267,-143.6627C267,-125.0027 267,-102.0673 267,-82.1671"/>
<polygon fill="#000000" stroke="#000000" points="270.5001,-82.0759 267,-72.076 263.5001,-82.076 270.5001,-82.0759"/>
</g>
<!-- 8 -->
<g id="8" class="node">
<title>8</title>
<polygon fill="none" stroke="#000000" points="231,-504 123,-504 123,-432 231,-432 231,-504"/>
<text text-anchor="middle" x="177" y="-467" font-family="Times,serif" font-size="5.00" fill="#000000">8: Single&#45;Page Application</text>
</g>
<!-- 8&#45;&gt;12 -->
<g id="32" class="edge">
<title>8&#45;&gt;12</title>
<path fill="none" stroke="#000000" d="M154.2892,-431.6627C142.3592,-412.5748 127.6331,-389.0129 115.0017,-368.8027"/>
<polygon fill="#000000" stroke="#000000" points="117.8155,-366.701 109.5475,-360.076 111.8795,-370.411 117.8155,-366.701"/>
</g>
<!-- 8&#45;&gt;13 -->
<g id="34" class="edge">
<title>8&#45;&gt;13</title>
<path fill="none" stroke="#000000" d="M231.0059,-443.0973C284.0261,-418.6491 357,-385 357,-385 357,-385 369.6038,-376.4574 385.3781,-365.7659"/>
<polygon fill="#000000" stroke="#000000" points="387.552,-368.5208 393.8661,-360.013 383.6246,-362.7263 387.552,-368.5208"/>
</g>
<!-- 8&#45;&gt;14 -->
<g id="35" class="edge">
<title>8&#45;&gt;14</title>
<path fill="none" stroke="#000000" d="M199.7108,-431.6627C211.6408,-412.5748 226.3669,-389.0129 238.9983,-368.8027"/>
<polygon fill="#000000" stroke="#000000" points="242.1205,-370.411 244.4525,-360.076 236.1845,-366.701 242.1205,-370.411"/>
</g>
<!-- 9 -->
<g id="9" class="node">
<title>9</title>
<polygon fill="none" stroke="#000000" points="411,-504 303,-504 303,-432 411,-432 411,-504"/>
<text text-anchor="middle" x="357" y="-467" font-family="Times,serif" font-size="5.00" fill="#000000">9: Mobile App</text>
</g>
<!-- 9&#45;&gt;12 -->
<g id="36" class="edge">
<title>9&#45;&gt;12</title>
<path fill="none" stroke="#000000" d="M302.9941,-443.0973C249.9739,-418.6491 177,-385 177,-385 177,-385 164.3962,-376.4574 148.6219,-365.7659"/>
<polygon fill="#000000" stroke="#000000" points="150.3754,-362.7263 140.1339,-360.013 146.448,-368.5208 150.3754,-362.7263"/>
</g>
<!-- 9&#45;&gt;13 -->
<g id="38" class="edge">
<title>9&#45;&gt;13</title>
<path fill="none" stroke="#000000" d="M379.7108,-431.6627C391.6408,-412.5748 406.3669,-389.0129 418.9983,-368.8027"/>
<polygon fill="#000000" stroke="#000000" points="422.1205,-370.411 424.4525,-360.076 416.1845,-366.701 422.1205,-370.411"/>
</g>
<!-- 9&#45;&gt;14 -->
<g id="39" class="edge">
<title>9&#45;&gt;14</title>
<path fill="none" stroke="#000000" d="M334.2892,-431.6627C322.3592,-412.5748 307.6331,-389.0129 295.0017,-368.8027"/>
<polygon fill="#000000" stroke="#000000" points="297.8155,-366.701 289.5475,-360.076 291.8795,-370.411 297.8155,-366.701"/>
</g>
</g>
</svg>
