<?xml version="1.0" encoding="UTF-8" standalone="no"?>
<!DOCTYPE svg PUBLIC "-//W3C//DTD SVG 1.1//EN"
 "http://www.w3.org/Graphics/SVG/1.1/DTD/svg11.dtd">
<!-- Generated by graphviz version 2.40.1 (20161225.0304)
 -->
<!-- Title: %3 Pages: 1 -->
<svg width="559pt" height="713pt"
 viewBox="0.00 0.00 559.00 713.00" xmlns="http://www.w3.org/2000/svg" xmlns:xlink="http://www.w3.org/1999/xlink">
<g id="graph0" class="graph" transform="scale(1 1) rotate(0) translate(4 709)">
<title>%3</title>
<polygon fill="#ffffff" stroke="transparent" points="-4,4 -4,-709 555,-709 555,4 -4,4"/>
<g id="clust1" class="cluster">
<title>cluster_7</title>
<polygon fill="none" stroke="#000000" points="8,-8 8,-574 346,-574 346,-8 8,-8"/>
</g>
<!-- 11 -->
<g id="11" class="node">
<title>11</title>
<polygon fill="none" stroke="#000000" points="321,-249 213,-249 213,-177 321,-177 321,-249"/>
<text text-anchor="middle" x="267" y="-212" font-family="Times,serif" font-size="5.00" fill="#000000">11: API Application</text>
</g>
<!-- 18 -->
<g id="18" class="node">
<title>18</title>
<polygon fill="none" stroke="#000000" points="310,-105 202,-105 202,-33 310,-33 310,-105"/>
<text text-anchor="middle" x="256" y="-68" font-family="Times,serif" font-size="5.00" fill="#000000">18: Database</text>
</g>
<!-- 11&#45;&gt;18 -->
<g id="45" class="edge">
<title>11&#45;&gt;18</title>
<path fill="none" stroke="#000000" d="M264.2242,-176.6627C262.7988,-158.0027 261.0468,-135.0673 259.5267,-115.1671"/>
<polygon fill="#000000" stroke="#000000" points="263.0074,-114.7803 258.7558,-105.076 256.0277,-115.3135 263.0074,-114.7803"/>
</g>
<!-- 4 -->
<g id="4" class="node">
<title>4</title>
<polygon fill="none" stroke="#000000" points="490,-105 382,-105 382,-33 490,-33 490,-105"/>
<text text-anchor="middle" x="436" y="-68" font-family="Times,serif" font-size="5.00" fill="#000000">4: Mainframe Banking System</text>
</g>
<!-- 11&#45;&gt;4 -->
<g id="47" class="edge">
<title>11&#45;&gt;4</title>
<path fill="none" stroke="#000000" d="M309.6458,-176.6627C332.8513,-156.89 361.6909,-132.3166 385.9562,-111.6409"/>
<polygon fill="#000000" stroke="#000000" points="388.3192,-114.2257 393.6608,-105.076 383.7792,-108.8976 388.3192,-114.2257"/>
</g>
<!-- 5 -->
<g id="5" class="node">
<title>5</title>
<polygon fill="none" stroke="#000000" points="551,-705 443,-705 443,-633 551,-633 551,-705"/>
<text text-anchor="middle" x="497" y="-668" font-family="Times,serif" font-size="5.00" fill="#000000">5: E&#45;mail System</text>
</g>
<!-- 11&#45;&gt;5 -->
<g id="49" class="edge">
<title>11&#45;&gt;5</title>
<path fill="none" stroke="#000000" d="M300.813,-249.1055C366.0692,-318.7857 503,-465 503,-465 503,-465 503,-574 503,-574 503,-574 501.4542,-598.4744 499.9319,-622.5784"/>
<polygon fill="#000000" stroke="#000000" points="496.4228,-622.6128 499.2855,-632.8136 503.4089,-623.0541 496.4228,-622.6128"/>
</g>
<!-- 8 -->
<g id="8" class="node">
<title>8</title>
<polygon fill="none" stroke="#000000" points="141,-393 33,-393 33,-321 141,-321 141,-393"/>
<text text-anchor="middle" x="87" y="-356" font-family="Times,serif" font-size="5.00" fill="#000000">8: Single&#45;Page Application</text>
</g>
<!-- 8&#45;&gt;11 -->
<g id="33" class="edge">
<title>8&#45;&gt;11</title>
<path fill="none" stroke="#000000" d="M132.4216,-320.6627C157.2445,-300.8044 188.1203,-276.1038 214.0342,-255.3726"/>
<polygon fill="#000000" stroke="#000000" points="216.2828,-258.056 221.905,-249.076 211.9099,-252.5899 216.2828,-258.056"/>
</g>
<!-- 9 -->
<g id="9" class="node">
<title>9</title>
<polygon fill="none" stroke="#000000" points="321,-393 213,-393 213,-321 321,-321 321,-393"/>
<text text-anchor="middle" x="267" y="-356" font-family="Times,serif" font-size="5.00" fill="#000000">9: Mobile App</text>
</g>
<!-- 9&#45;&gt;11 -->
<g id="37" class="edge">
<title>9&#45;&gt;11</title>
<path fill="none" stroke="#000000" d="M267,-320.6627C267,-302.0027 267,-279.0673 267,-259.1671"/>
<polygon fill="#000000" stroke="#000000" points="270.5001,-259.0759 267,-249.076 263.5001,-259.076 270.5001,-259.0759"/>
</g>
<!-- 10 -->
<g id="10" class="node">
<title>10</title>
<polygon fill="none" stroke="#000000" points="220,-549 112,-549 112,-477 220,-477 220,-549"/>
<text text-anchor="middle" x="166" y="-512" font-family="Times,serif" font-size="5.00" fill="#000000">10: Web Application</text>
</g>
<!-- 10&#45;&gt;8 -->
<g id="31" class="edge">
<title>10&#45;&gt;8</title>
<path fill="none" stroke="#000000" d="M147.6772,-476.8184C136.4505,-454.649 121.9832,-426.0808 109.9914,-402.4006"/>
<polygon fill="#000000" stroke="#000000" points="113.0004,-400.5953 105.3601,-393.2553 106.7555,-403.7579 113.0004,-400.5953"/>
</g>
<!-- 1 -->
<g id="1" class="node">
<title>1</title>
<polygon fill="none" stroke="#000000" points="467,-561 371,-561 371,-465 467,-465 467,-561"/>
<text text-anchor="middle" x="419" y="-512" font-family="Times,serif" font-size="5.00" fill="#000000">1: Personal Banking Customer</text>
</g>
<!-- 1&#45;&gt;8 -->
<g id="29" class="edge">
<title>1&#45;&gt;8</title>
<path fill="none" stroke="#000000" d="M370.7441,-470.8857C366.6318,-467.2969 364,-465 364,-465 364,-465 177,-393 177,-393 177,-393 165.5005,-388.4002 150.7225,-382.489"/>
<polygon fill="#000000" stroke="#000000" points="151.7557,-379.1327 141.171,-378.6684 149.1559,-385.632 151.7557,-379.1327"/>
</g>
<!-- 1&#45;&gt;9 -->
<g id="30" class="edge">
<title>1&#45;&gt;9</title>
<path fill="none" stroke="#000000" d="M372.1547,-464.9219C352.1111,-444.3509 328.8787,-420.5071 309.3568,-400.4714"/>
<polygon fill="#000000" stroke="#000000" points="311.8306,-397.9951 302.3451,-393.2753 306.817,-402.8801 311.8306,-397.9951"/>
</g>
<!-- 1&#45;&gt;10 -->
<g id="28" class="edge">
<title>1&#45;&gt;10</title>
<path fill="none" stroke="#000000" d="M370.921,-513C351.9822,-513 334.6667,-513 334.6667,-513 334.6667,-513 250.3333,-513 250.3333,-513 250.3333,-513 242.0009,-513 230.5742,-513"/>
<polygon fill="#000000" stroke="#000000" points="230.3631,-509.5001 220.3631,-513 230.3631,-516.5001 230.3631,-509.5001"/>
</g>
<!-- 5&#45;&gt;1 -->
<g id="22" class="edge">
<title>5&#45;&gt;1</title>
<path fill="none" stroke="#000000" d="M478.9092,-632.8184C469.6182,-614.2363 458.0793,-591.1587 447.616,-570.2321"/>
<polygon fill="#000000" stroke="#000000" points="450.655,-568.4837 443.0523,-561.1047 444.394,-571.6142 450.655,-568.4837"/>
</g>
</g>
</svg>
