<?xml version="1.0" encoding="UTF-8" standalone="no"?>
<!DOCTYPE svg PUBLIC "-//W3C//DTD SVG 1.1//EN"
 "http://www.w3.org/Graphics/SVG/1.1/DTD/svg11.dtd">
<!-- Generated by graphviz version 2.40.1 (20161225.0304)
 -->
<!-- Title: %3 Pages: 1 -->
<svg width="678pt" height="640pt"
 viewBox="0.00 0.00 678.00 640.00" xmlns="http://www.w3.org/2000/svg" xmlns:xlink="http://www.w3.org/1999/xlink">
<g id="graph0" class="graph" transform="scale(1 1) rotate(0) translate(4 636)">
<title>%3</title>
<polygon fill="#ffffff" stroke="transparent" points="-4,4 -4,-636 674,-636 674,4 -4,4"/>
<g id="clust1" class="cluster">
<title>cluster_50</title>
<polygon fill="none" stroke="#000000" points="8,-8 8,-624 446,-624 446,-8 8,-8"/>
<text text-anchor="middle" x="227" y="-616" font-family="Times,serif" font-size="5.00" fill="#000000">50: Developer Laptop</text>
</g>
<g id="clust2" class="cluster">
<title>cluster_51</title>
<polygon fill="none" stroke="#000000" points="148,-449 148,-585 306,-585 306,-449 148,-449"/>
<text text-anchor="middle" x="227" y="-577" font-family="Times,serif" font-size="5.00" fill="#000000">51: Web Browser</text>
</g>
<g id="clust3" class="cluster">
<title>cluster_59</title>
<polygon fill="none" stroke="#000000" points="33,-33 33,-233 241,-233 241,-33 33,-33"/>
<text text-anchor="middle" x="137" y="-225" font-family="Times,serif" font-size="5.00" fill="#000000">59: Docker Container &#45; Database Server</text>
</g>
<g id="clust4" class="cluster">
<title>cluster_60</title>
<polygon fill="none" stroke="#000000" points="58,-58 58,-194 216,-194 216,-58 58,-58"/>
<text text-anchor="middle" x="137" y="-186" font-family="Times,serif" font-size="5.00" fill="#000000">60: Database Server</text>
</g>
<g id="clust5" class="cluster">
<title>cluster_53</title>
<polygon fill="none" stroke="#000000" points="33,-241 33,-441 421,-441 421,-241 33,-241"/>
<text text-anchor="middle" x="227" y="-433" font-family="Times,serif" font-size="5.00" fill="#000000">53: Docker Container &#45; Web Server</text>
</g>
<g id="clust6" class="cluster">
<title>cluster_54</title>
<polygon fill="none" stroke="#000000" points="58,-266 58,-402 396,-402 396,-266 58,-266"/>
<text text-anchor="middle" x="227" y="-394" font-family="Times,serif" font-size="5.00" fill="#000000">54: Apache Tomcat</text>
</g>
<g id="clust7" class="cluster">
<title>cluster_63</title>
<polygon fill="none" stroke="#000000" points="454,-33 454,-233 662,-233 662,-33 454,-33"/>
<text text-anchor="middle" x="558" y="-225" font-family="Times,serif" font-size="5.00" fill="#000000">63: Big Bank plc</text>
</g>
<g id="clust8" class="cluster">
<title>cluster_64</title>
<polygon fill="none" stroke="#000000" points="479,-58 479,-194 637,-194 637,-58 479,-58"/>
<text text-anchor="middle" x="558" y="-186" font-family="Times,serif" font-size="5.00" fill="#000000">64: bigbank&#45;dev001</text>
</g>
<!-- 52 -->
<g id="52" class="node">
<title>52</title>
<polygon fill="none" stroke="#000000" points="281,-546 173,-546 173,-474 281,-474 281,-546"/>
<text text-anchor="middle" x="227" y="-509" font-family="Times,serif" font-size="5.00" fill="#000000">52: Single&#45;Page Application</text>
</g>
<!-- 57 -->
<g id="57" class="node">
<title>57</title>
<polygon fill="none" stroke="#000000" points="191,-363 83,-363 83,-291 191,-291 191,-363"/>
<text text-anchor="middle" x="137" y="-326" font-family="Times,serif" font-size="5.00" fill="#000000">57: API Application</text>
</g>
<!-- 52&#45;&gt;57 -->
<g id="58" class="edge">
<title>52&#45;&gt;57</title>
<path fill="none" stroke="#000000" d="M209.2189,-473.8451C194.9199,-444.7704 174.7476,-403.7535 159.3557,-372.4566"/>
<polygon fill="#000000" stroke="#000000" points="162.2981,-370.5087 154.7442,-363.0798 156.0167,-373.598 162.2981,-370.5087"/>
</g>
<!-- 61 -->
<g id="61" class="node">
<title>61</title>
<polygon fill="none" stroke="#000000" points="191,-155 83,-155 83,-83 191,-83 191,-155"/>
<text text-anchor="middle" x="137" y="-118" font-family="Times,serif" font-size="5.00" fill="#000000">61: Database</text>
</g>
<!-- 55 -->
<g id="55" class="node">
<title>55</title>
<polygon fill="none" stroke="#000000" points="371,-363 263,-363 263,-291 371,-291 371,-363"/>
<text text-anchor="middle" x="317" y="-326" font-family="Times,serif" font-size="5.00" fill="#000000">55: Web Application</text>
</g>
<!-- 55&#45;&gt;52 -->
<g id="56" class="edge">
<title>55&#45;&gt;52</title>
<path fill="none" stroke="#000000" d="M299.2558,-363.0798C284.9053,-392.2591 264.6217,-433.5026 249.1966,-464.8669"/>
<polygon fill="#000000" stroke="#000000" points="246.0536,-463.3269 244.7811,-473.8451 252.3351,-466.4162 246.0536,-463.3269"/>
</g>
<!-- 57&#45;&gt;61 -->
<g id="62" class="edge">
<title>57&#45;&gt;61</title>
<path fill="none" stroke="#000000" d="M137,-290.7692C137,-255.9794 137,-203.2692 137,-165.4185"/>
<polygon fill="#000000" stroke="#000000" points="140.5001,-165.164 137,-155.164 133.5001,-165.164 140.5001,-165.164"/>
</g>
<!-- 65 -->
<g id="65" class="node">
<title>65</title>
<polygon fill="none" stroke="#000000" points="612,-155 504,-155 504,-83 612,-83 612,-155"/>
<text text-anchor="middle" x="558" y="-118" font-family="Times,serif" font-size="5.00" fill="#000000">65: Mainframe Banking System</text>
</g>
<!-- 57&#45;&gt;65 -->
<g id="66" class="edge">
<title>57&#45;&gt;65</title>
<path fill="none" stroke="#000000" d="M174.9073,-290.7775C199.5036,-267.2743 227,-241 227,-241 227,-241 397.8708,-178.0204 494.0749,-142.5615"/>
<polygon fill="#000000" stroke="#000000" points="495.5402,-145.7517 503.7127,-139.0092 493.1193,-139.1836 495.5402,-145.7517"/>
</g>
</g>
</svg>
