<?xml version="1.0" encoding="UTF-8" standalone="no"?>
<!DOCTYPE svg PUBLIC "-//W3C//DTD SVG 1.1//EN"
 "http://www.w3.org/Graphics/SVG/1.1/DTD/svg11.dtd">
<!-- Generated by graphviz version 2.40.1 (20161225.0304)
 -->
<!-- Title: %3 Pages: 1 -->
<svg width="681pt" height="496pt"
 viewBox="0.00 0.00 681.00 496.00" xmlns="http://www.w3.org/2000/svg" xmlns:xlink="http://www.w3.org/1999/xlink">
<g id="graph0" class="graph" transform="scale(1 1) rotate(0) translate(4 492)">
<title>%3</title>
<polygon fill="#ffffff" stroke="transparent" points="-4,4 -4,-492 677,-492 677,4 -4,4"/>
<g id="clust1" class="cluster">
<title>cluster_50</title>
<polygon fill="none" stroke="#000000" points="8,-8 8,-480 449,-480 449,-8 8,-8"/>
<text text-anchor="middle" x="228.5" y="-472" font-family="Times,serif" font-size="5.00" fill="#000000">50: Developer Laptop</text>
</g>
<g id="clust2" class="cluster">
<title>cluster_53</title>
<polygon fill="none" stroke="#000000" points="36,-241 36,-441 424,-441 424,-241 36,-241"/>
<text text-anchor="middle" x="230" y="-433" font-family="Times,serif" font-size="5.00" fill="#000000">53: Docker Container &#45; Web Server</text>
</g>
<g id="clust3" class="cluster">
<title>cluster_54</title>
<polygon fill="none" stroke="#000000" points="61,-266 61,-402 399,-402 399,-266 61,-266"/>
<text text-anchor="middle" x="230" y="-394" font-family="Times,serif" font-size="5.00" fill="#000000">54: Apache Tomcat</text>
</g>
<g id="clust4" class="cluster">
<title>cluster_51</title>
<polygon fill="none" stroke="#000000" points="266,-58 266,-194 424,-194 424,-58 266,-58"/>
<text text-anchor="middle" x="345" y="-186" font-family="Times,serif" font-size="5.00" fill="#000000">51: Web Browser</text>
</g>
<g id="clust5" class="cluster">
<title>cluster_59</title>
<polygon fill="none" stroke="#000000" points="33,-33 33,-233 241,-233 241,-33 33,-33"/>
<text text-anchor="middle" x="137" y="-225" font-family="Times,serif" font-size="5.00" fill="#000000">59: Docker Container &#45; Database Server</text>
</g>
<g id="clust6" class="cluster">
<title>cluster_60</title>
<polygon fill="none" stroke="#000000" points="58,-58 58,-194 216,-194 216,-58 58,-58"/>
<text text-anchor="middle" x="137" y="-186" font-family="Times,serif" font-size="5.00" fill="#000000">60: Database Server</text>
</g>
<g id="clust7" class="cluster">
<title>cluster_63</title>
<polygon fill="none" stroke="#000000" points="457,-33 457,-233 665,-233 665,-33 457,-33"/>
<text text-anchor="middle" x="561" y="-225" font-family="Times,serif" font-size="5.00" fill="#000000">63: Big Bank plc</text>
</g>
<g id="clust8" class="cluster">
<title>cluster_64</title>
<polygon fill="none" stroke="#000000" points="482,-58 482,-194 640,-194 640,-58 482,-58"/>
<text text-anchor="middle" x="561" y="-186" font-family="Times,serif" font-size="5.00" fill="#000000">64: bigbank&#45;dev001</text>
</g>
<!-- 57 -->
<g id="57" class="node">
<title>57</title>
<polygon fill="none" stroke="#000000" points="374,-363 266,-363 266,-291 374,-291 374,-363"/>
<text text-anchor="middle" x="320" y="-326" font-family="Times,serif" font-size="5.00" fill="#000000">57: API Application</text>
</g>
<!-- 61 -->
<g id="61" class="node">
<title>61</title>
<polygon fill="none" stroke="#000000" points="191,-155 83,-155 83,-83 191,-83 191,-155"/>
<text text-anchor="middle" x="137" y="-118" font-family="Times,serif" font-size="5.00" fill="#000000">61: Database</text>
</g>
<!-- 57&#45;&gt;61 -->
<g id="62" class="edge">
<title>57&#45;&gt;61</title>
<path fill="none" stroke="#000000" d="M288.1238,-290.7692C256.8615,-255.236 209.1517,-201.0084 175.7229,-163.0129"/>
<polygon fill="#000000" stroke="#000000" points="178.0506,-160.3599 168.8174,-155.164 172.7951,-164.9838 178.0506,-160.3599"/>
</g>
<!-- 65 -->
<g id="65" class="node">
<title>65</title>
<polygon fill="none" stroke="#000000" points="615,-155 507,-155 507,-83 615,-83 615,-155"/>
<text text-anchor="middle" x="561" y="-118" font-family="Times,serif" font-size="5.00" fill="#000000">65: Mainframe Banking System</text>
</g>
<!-- 57&#45;&gt;65 -->
<g id="66" class="edge">
<title>57&#45;&gt;65</title>
<path fill="none" stroke="#000000" d="M366.8195,-290.926C401.2241,-264.4175 442,-233 442,-233 442,-233 482.1773,-194.5108 515.8415,-162.2611"/>
<polygon fill="#000000" stroke="#000000" points="518.5477,-164.5155 523.3477,-155.0703 513.7053,-159.4607 518.5477,-164.5155"/>
</g>
<!-- 55 -->
<g id="55" class="node">
<title>55</title>
<polygon fill="none" stroke="#000000" points="194,-363 86,-363 86,-291 194,-291 194,-363"/>
<text text-anchor="middle" x="140" y="-326" font-family="Times,serif" font-size="5.00" fill="#000000">55: Web Application</text>
</g>
<!-- 52 -->
<g id="52" class="node">
<title>52</title>
<polygon fill="none" stroke="#000000" points="399,-155 291,-155 291,-83 399,-83 399,-155"/>
<text text-anchor="middle" x="345" y="-118" font-family="Times,serif" font-size="5.00" fill="#000000">52: Single&#45;Page Application</text>
</g>
<!-- 55&#45;&gt;52 -->
<g id="56" class="edge">
<title>55&#45;&gt;52</title>
<path fill="none" stroke="#000000" d="M176.074,-290.926C202.5825,-264.4175 234,-233 234,-233 234,-233 271.4763,-194.5108 302.8774,-162.2611"/>
<polygon fill="#000000" stroke="#000000" points="305.4104,-164.6767 309.8789,-155.0703 300.3951,-159.7934 305.4104,-164.6767"/>
</g>
<!-- 52&#45;&gt;57 -->
<g id="58" class="edge">
<title>52&#45;&gt;57</title>
<path fill="none" stroke="#000000" d="M340.6534,-155.164C336.4747,-189.9308 330.1395,-242.639 325.5879,-280.5087"/>
<polygon fill="#000000" stroke="#000000" points="322.0731,-280.4229 324.3547,-290.7692 329.0231,-281.2583 322.0731,-280.4229"/>
</g>
</g>
</svg>
