<?xml version="1.0" encoding="UTF-8" standalone="no"?>
<!DOCTYPE svg PUBLIC "-//W3C//DTD SVG 1.1//EN"
 "http://www.w3.org/Graphics/SVG/1.1/DTD/svg11.dtd">
<!-- Generated by graphviz version 2.40.1 (20161225.0304)
 -->
<!-- Title: %3 Pages: 1 -->
<svg width="515pt" height="912pt"
 viewBox="0.00 0.00 515.00 912.00" xmlns="http://www.w3.org/2000/svg" xmlns:xlink="http://www.w3.org/1999/xlink">
<g id="graph0" class="graph" transform="scale(1 1) rotate(0) translate(4 908)">
<title>%3</title>
<polygon fill="#ffffff" stroke="transparent" points="-4,4 -4,-908 511,-908 511,4 -4,4"/>
<g id="clust1" class="cluster">
<title>cluster_67</title>
<polygon fill="none" stroke="#000000" points="58,-721 58,-857 216,-857 216,-721 58,-721"/>
<text text-anchor="middle" x="137" y="-849" font-family="Times,serif" font-size="5.00" fill="#000000">67: Customer&#39;s mobile device</text>
</g>
<g id="clust2" class="cluster">
<title>cluster_69</title>
<polygon fill="none" stroke="#000000" points="245,-696 245,-896 453,-896 453,-696 245,-696"/>
<text text-anchor="middle" x="349" y="-888" font-family="Times,serif" font-size="5.00" fill="#000000">69: Customer&#39;s computer</text>
</g>
<g id="clust3" class="cluster">
<title>cluster_70</title>
<polygon fill="none" stroke="#000000" points="270,-721 270,-857 428,-857 428,-721 270,-721"/>
<text text-anchor="middle" x="349" y="-849" font-family="Times,serif" font-size="5.00" fill="#000000">70: Web Browser</text>
</g>
<g id="clust4" class="cluster">
<title>cluster_72</title>
<polygon fill="none" stroke="#000000" points="8,-8 8,-688 499,-688 499,-8 8,-8"/>
<text text-anchor="middle" x="253.5" y="-680" font-family="Times,serif" font-size="5.00" fill="#000000">72: Big Bank plc</text>
</g>
<g id="clust5" class="cluster">
<title>cluster_77</title>
<polygon fill="none" stroke="#000000" points="33,-449 33,-649 241,-649 241,-449 33,-449"/>
<text text-anchor="middle" x="137" y="-641" font-family="Times,serif" font-size="5.00" fill="#000000">77: bigbank&#45;api***</text>
</g>
<g id="clust6" class="cluster">
<title>cluster_78</title>
<polygon fill="none" stroke="#000000" points="58,-474 58,-610 216,-610 216,-474 58,-474"/>
<text text-anchor="middle" x="137" y="-602" font-family="Times,serif" font-size="5.00" fill="#000000">78: Apache Tomcat</text>
</g>
<g id="clust7" class="cluster">
<title>cluster_82</title>
<polygon fill="none" stroke="#000000" points="33,-241 33,-441 241,-441 241,-241 33,-241"/>
<text text-anchor="middle" x="137" y="-433" font-family="Times,serif" font-size="5.00" fill="#000000">82: bigbank&#45;db01</text>
</g>
<g id="clust8" class="cluster">
<title>cluster_83</title>
<polygon fill="none" stroke="#000000" points="58,-266 58,-402 216,-402 216,-266 58,-266"/>
<text text-anchor="middle" x="137" y="-394" font-family="Times,serif" font-size="5.00" fill="#000000">83: Oracle &#45; Primary</text>
</g>
<g id="clust9" class="cluster">
<title>cluster_86</title>
<polygon fill="none" stroke="#000000" points="98,-33 98,-233 306,-233 306,-33 98,-33"/>
<text text-anchor="middle" x="202" y="-225" font-family="Times,serif" font-size="5.00" fill="#000000">86: bigbank&#45;db02</text>
</g>
<g id="clust10" class="cluster">
<title>cluster_87</title>
<polygon fill="none" stroke="#000000" points="123,-58 123,-194 281,-194 281,-58 123,-58"/>
<text text-anchor="middle" x="202" y="-186" font-family="Times,serif" font-size="5.00" fill="#000000">87: Oracle &#45; Secondary</text>
</g>
<g id="clust11" class="cluster">
<title>cluster_90</title>
<polygon fill="none" stroke="#000000" points="315,-266 315,-402 473,-402 473,-266 315,-266"/>
<text text-anchor="middle" x="394" y="-394" font-family="Times,serif" font-size="5.00" fill="#000000">90: bigbank&#45;prod001</text>
</g>
<g id="clust12" class="cluster">
<title>cluster_73</title>
<polygon fill="none" stroke="#000000" points="266,-449 266,-649 474,-649 474,-449 266,-449"/>
<text text-anchor="middle" x="370" y="-641" font-family="Times,serif" font-size="5.00" fill="#000000">73: bigbank&#45;web***</text>
</g>
<g id="clust13" class="cluster">
<title>cluster_74</title>
<polygon fill="none" stroke="#000000" points="291,-474 291,-610 449,-610 449,-474 291,-474"/>
<text text-anchor="middle" x="370" y="-602" font-family="Times,serif" font-size="5.00" fill="#000000">74: Apache Tomcat</text>
</g>
<!-- 68 -->
<g id="68" class="node">
<title>68</title>
<polygon fill="none" stroke="#000000" points="191,-818 83,-818 83,-746 191,-746 191,-818"/>
<text text-anchor="middle" x="137" y="-781" font-family="Times,serif" font-size="5.00" fill="#000000">68: Mobile App</text>
</g>
<!-- 79 -->
<g id="79" class="node">
<title>79</title>
<polygon fill="none" stroke="#000000" points="191,-571 83,-571 83,-499 191,-499 191,-571"/>
<text text-anchor="middle" x="137" y="-534" font-family="Times,serif" font-size="5.00" fill="#000000">79: API Application</text>
</g>
<!-- 68&#45;&gt;79 -->
<g id="80" class="edge">
<title>68&#45;&gt;79</title>
<path fill="none" stroke="#000000" d="M137,-745.8196C137,-702.2513 137,-628.9991 137,-581.3344"/>
<polygon fill="#000000" stroke="#000000" points="140.5001,-581.2772 137,-571.2772 133.5001,-581.2773 140.5001,-581.2772"/>
</g>
<!-- 71 -->
<g id="71" class="node">
<title>71</title>
<polygon fill="none" stroke="#000000" points="403,-818 295,-818 295,-746 403,-746 403,-818"/>
<text text-anchor="middle" x="349" y="-781" font-family="Times,serif" font-size="5.00" fill="#000000">71: Single&#45;Page Application</text>
</g>
<!-- 71&#45;&gt;79 -->
<g id="81" class="edge">
<title>71&#45;&gt;79</title>
<path fill="none" stroke="#000000" d="M317.9463,-745.8196C279.9246,-701.5206 215.5633,-626.5336 174.7291,-578.958"/>
<polygon fill="#000000" stroke="#000000" points="177.3056,-576.5859 168.1367,-571.2772 171.9939,-581.145 177.3056,-576.5859"/>
</g>
<!-- 84 -->
<g id="84" class="node">
<title>84</title>
<polygon fill="none" stroke="#000000" points="191,-363 83,-363 83,-291 191,-291 191,-363"/>
<text text-anchor="middle" x="137" y="-326" font-family="Times,serif" font-size="5.00" fill="#000000">84: Database</text>
</g>
<!-- 79&#45;&gt;84 -->
<g id="85" class="edge">
<title>79&#45;&gt;84</title>
<path fill="none" stroke="#000000" d="M137,-498.7692C137,-463.9794 137,-411.2692 137,-373.4185"/>
<polygon fill="#000000" stroke="#000000" points="140.5001,-373.164 137,-363.164 133.5001,-373.164 140.5001,-373.164"/>
</g>
<!-- 88 -->
<g id="88" class="node">
<title>88</title>
<polygon fill="none" stroke="#000000" points="256,-155 148,-155 148,-83 256,-83 256,-155"/>
<text text-anchor="middle" x="202" y="-118" font-family="Times,serif" font-size="5.00" fill="#000000">88: Database</text>
</g>
<!-- 79&#45;&gt;88 -->
<g id="89" class="edge">
<title>79&#45;&gt;88</title>
<path fill="none" stroke="#000000" d="M174.2253,-498.926C201.5798,-472.4175 234,-441 234,-441 234,-441 234,-241 234,-241 234,-241 223.1872,-199.7763 214.1324,-165.2548"/>
<polygon fill="#000000" stroke="#000000" points="217.4371,-164.0585 211.5144,-155.2737 210.6661,-165.8345 217.4371,-164.0585"/>
</g>
<!-- 91 -->
<g id="91" class="node">
<title>91</title>
<polygon fill="none" stroke="#000000" points="448,-363 340,-363 340,-291 448,-291 448,-363"/>
<text text-anchor="middle" x="394" y="-326" font-family="Times,serif" font-size="5.00" fill="#000000">91: Mainframe Banking System</text>
</g>
<!-- 79&#45;&gt;91 -->
<g id="92" class="edge">
<title>79&#45;&gt;91</title>
<path fill="none" stroke="#000000" d="M191.1416,-500.7634C229.0676,-476.7808 273,-449 273,-449 273,-449 286,-441 286,-441 286,-441 322.1577,-402.8336 352.6304,-370.6679"/>
<polygon fill="#000000" stroke="#000000" points="355.4915,-372.737 359.8281,-363.0703 350.4098,-367.9227 355.4915,-372.737"/>
</g>
<!-- 84&#45;&gt;88 -->
<g id="93" class="edge">
<title>84&#45;&gt;88</title>
<path fill="none" stroke="#000000" d="M156.0618,-266.0024C162.1482,-246.5257 168.9979,-224.6067 175.5135,-203.7568"/>
<polygon fill="#000000" stroke="#000000" points="178.9214,-204.5855 178.5635,-193.9967 172.24,-202.4975 178.9214,-204.5855"/>
</g>
<!-- 75 -->
<g id="75" class="node">
<title>75</title>
<polygon fill="none" stroke="#000000" points="424,-571 316,-571 316,-499 424,-499 424,-571"/>
<text text-anchor="middle" x="370" y="-534" font-family="Times,serif" font-size="5.00" fill="#000000">75: Web Application</text>
</g>
<!-- 75&#45;&gt;71 -->
<g id="76" class="edge">
<title>75&#45;&gt;71</title>
<path fill="none" stroke="#000000" d="M366.9157,-571.2772C363.2078,-614.8894 356.9796,-688.1446 352.9304,-735.7714"/>
<polygon fill="#000000" stroke="#000000" points="349.4359,-735.559 352.0761,-745.8196 356.4107,-736.152 349.4359,-735.559"/>
</g>
</g>
</svg>
