<?xml version="1.0" encoding="UTF-8" standalone="no"?>
<!DOCTYPE svg PUBLIC "-//W3C//DTD SVG 1.1//EN"
 "http://www.w3.org/Graphics/SVG/1.1/DTD/svg11.dtd">
<!-- Generated by graphviz version 2.40.1 (20161225.0304)
 -->
<!-- Title: %3 Pages: 1 -->
<svg width="775pt" height="196pt"
 viewBox="0.00 0.00 775.00 196.00" xmlns="http://www.w3.org/2000/svg" xmlns:xlink="http://www.w3.org/1999/xlink">
<g id="graph0" class="graph" transform="scale(1 1) rotate(0) translate(4 192)">
<title>%3</title>
<polygon fill="#ffffff" stroke="transparent" points="-4,4 -4,-192 771,-192 771,4 -4,4"/>
<g id="clust1" class="cluster">
<title>cluster_4</title>
<polygon fill="none" stroke="#000000" points="8,-8 8,-180 759,-180 759,-8 8,-8"/>
</g>
<g id="clust2" class="cluster">
<title>cluster_group_1</title>
<polygon fill="none" stroke="#000000" points="396,-33 396,-155 734,-155 734,-33 396,-33"/>
</g>
<g id="clust3" class="cluster">
<title>cluster_group_2</title>
<polygon fill="none" stroke="#000000" points="33,-33 33,-155 371,-155 371,-33 33,-33"/>
</g>
<!-- 5 -->
<g id="5" class="node">
<title>5</title>
<polygon fill="none" stroke="#000000" points="709,-130 601,-130 601,-58 709,-58 709,-130"/>
<text text-anchor="middle" x="655" y="-93" font-family="Times,serif" font-size="5.00" fill="#000000">5: io</text>
</g>
<!-- 6 -->
<g id="6" class="node">
<title>6</title>
<polygon fill="none" stroke="#000000" points="529,-130 421,-130 421,-58 529,-58 529,-130"/>
<text text-anchor="middle" x="475" y="-93" font-family="Times,serif" font-size="5.00" fill="#000000">6: importers</text>
</g>
<!-- 7 -->
<g id="7" class="node">
<title>7</title>
<polygon fill="none" stroke="#000000" points="346,-130 238,-130 238,-58 346,-58 346,-130"/>
<text text-anchor="middle" x="292" y="-93" font-family="Times,serif" font-size="5.00" fill="#000000">7: ACE</text>
</g>
<!-- 8 -->
<g id="8" class="node">
<title>8</title>
<polygon fill="none" stroke="#000000" points="166,-130 58,-130 58,-58 166,-58 166,-130"/>
<text text-anchor="middle" x="112" y="-93" font-family="Times,serif" font-size="5.00" fill="#000000">8: schema</text>
</g>
</g>
</svg>
