<?xml version="1.0" encoding="UTF-8" standalone="no"?>
<!DOCTYPE svg PUBLIC "-//W3C//DTD SVG 1.1//EN"
 "http://www.w3.org/Graphics/SVG/1.1/DTD/svg11.dtd">
<!-- Generated by graphviz version 2.40.1 (20161225.0304)
 -->
<!-- Title: %3 Pages: 1 -->
<svg width="256pt" height="434pt"
 viewBox="0.00 0.00 256.00 434.00" xmlns="http://www.w3.org/2000/svg" xmlns:xlink="http://www.w3.org/1999/xlink">
<g id="graph0" class="graph" transform="scale(1 1) rotate(0) translate(4 430)">
<title>%3</title>
<polygon fill="#ffffff" stroke="transparent" points="-4,4 -4,-430 252,-430 252,4 -4,4"/>
<g id="clust1" class="cluster">
<title>cluster_enterprise</title>
<polygon fill="none" stroke="#000000" points="8,-8 8,-418 240,-418 240,-8 8,-8"/>
</g>
<!-- 1 -->
<g id="1" class="node">
<title>1</title>
<polygon fill="none" stroke="#000000" points="141,-393 33,-393 33,-321 141,-321 141,-393"/>
<text text-anchor="middle" x="87" y="-356" font-family="Times,serif" font-size="5.00" fill="#000000">1: Andy</text>
</g>
<!-- 2 -->
<g id="2" class="node">
<title>2</title>
<polygon fill="none" stroke="#000000" points="141,-249 33,-249 33,-177 141,-177 141,-249"/>
<text text-anchor="middle" x="87" y="-212" font-family="Times,serif" font-size="5.00" fill="#000000">2: Geordie</text>
</g>
<!-- 1&#45;&gt;2 -->
<g id="12" class="edge">
<title>1&#45;&gt;2</title>
<path fill="none" stroke="#000000" d="M63.1904,-320.6627C59.5535,-302.0027 59.026,-279.0673 61.608,-259.1671"/>
<polygon fill="#000000" stroke="#000000" points="65.0985,-259.5068 63.2416,-249.076 58.1884,-258.3881 65.0985,-259.5068"/>
</g>
<!-- 3 -->
<g id="3" class="node">
<title>3</title>
<polygon fill="none" stroke="#000000" points="178,-105 70,-105 70,-33 178,-33 178,-105"/>
<text text-anchor="middle" x="124" y="-68" font-family="Times,serif" font-size="5.00" fill="#000000">3: Report Checker</text>
</g>
<!-- 1&#45;&gt;3 -->
<g id="11" class="edge">
<title>1&#45;&gt;3</title>
<path fill="none" stroke="#000000" d="M117.2191,-320.7371C143.365,-289.362 177,-249 177,-249 177,-249 177,-177 177,-177 177,-177 160.7325,-143.8511 146.2224,-114.2834"/>
<polygon fill="#000000" stroke="#000000" points="149.3433,-112.6982 141.7957,-105.2629 143.0592,-115.7821 149.3433,-112.6982"/>
</g>
<!-- 2&#45;&gt;1 -->
<g id="13" class="edge">
<title>2&#45;&gt;1</title>
<path fill="none" stroke="#000000" d="M110.7584,-249.076C114.4244,-267.6958 114.9809,-290.6254 112.428,-310.5537"/>
<polygon fill="#000000" stroke="#000000" points="108.9345,-310.2351 110.8096,-320.6627 115.8465,-311.3418 108.9345,-310.2351"/>
</g>
<!-- 2&#45;&gt;3 -->
<g id="14" class="edge">
<title>2&#45;&gt;3</title>
<path fill="none" stroke="#000000" d="M96.3367,-176.6627C101.1532,-157.9171 107.0785,-134.8568 112.2079,-114.8934"/>
<polygon fill="#000000" stroke="#000000" points="115.6317,-115.6324 114.7305,-105.076 108.8519,-113.8903 115.6317,-115.6324"/>
</g>
</g>
</svg>
