<?xml version="1.0" encoding="UTF-8" standalone="no"?>
<!DOCTYPE svg PUBLIC "-//W3C//DTD SVG 1.1//EN"
 "http://www.w3.org/Graphics/SVG/1.1/DTD/svg11.dtd">
<!-- Generated by graphviz version 2.40.1 (20161225.0304)
 -->
<!-- Title: %3 Pages: 1 -->
<svg width="329pt" height="401pt"
 viewBox="0.00 0.00 329.00 401.00" xmlns="http://www.w3.org/2000/svg" xmlns:xlink="http://www.w3.org/1999/xlink">
<g id="graph0" class="graph" transform="scale(1 1) rotate(0) translate(4 397)">
<title>%3</title>
<polygon fill="#ffffff" stroke="transparent" points="-4,4 -4,-397 325,-397 325,4 -4,4"/>
<g id="clust1" class="cluster">
<title>cluster_11</title>
<polygon fill="none" stroke="#000000" points="8,-119 8,-385 166,-385 166,-119 8,-119"/>
</g>
<!-- 12 -->
<g id="12" class="node">
<title>12</title>
<polygon fill="none" stroke="#000000" points="141,-360 33,-360 33,-288 141,-288 141,-360"/>
<text text-anchor="middle" x="87" y="-323" font-family="Times,serif" font-size="5.00" fill="#000000">12: Sign In Controller</text>
</g>
<!-- 15 -->
<g id="15" class="node">
<title>15</title>
<polygon fill="none" stroke="#000000" points="141,-216 33,-216 33,-144 141,-144 141,-216"/>
<text text-anchor="middle" x="87" y="-179" font-family="Times,serif" font-size="5.00" fill="#000000">15: Security Component</text>
</g>
<!-- 12&#45;&gt;15 -->
<g id="40" class="edge">
<title>12&#45;&gt;15</title>
<path fill="none" stroke="#000000" d="M63.1904,-287.6627C59.5535,-269.0027 59.026,-246.0673 61.608,-226.1671"/>
<polygon fill="#000000" stroke="#000000" points="65.0985,-226.5068 63.2416,-216.076 58.1884,-225.3881 65.0985,-226.5068"/>
</g>
<!-- 8 -->
<g id="8" class="node">
<title>8</title>
<polygon fill="none" stroke="#000000" points="321,-216 213,-216 213,-144 321,-144 321,-216"/>
<text text-anchor="middle" x="267" y="-179" font-family="Times,serif" font-size="5.00" fill="#000000">8: Single&#45;Page Application</text>
</g>
<!-- 12&#45;&gt;8 -->
<g id="32" class="edge">
<title>12&#45;&gt;8</title>
<path fill="none" stroke="#000000" d="M108.612,-287.6627C133.1439,-264.4118 170.8012,-234.5227 203.9047,-212.1389"/>
<polygon fill="#000000" stroke="#000000" points="206.2622,-214.775 212.6576,-206.3281 202.3905,-208.9431 206.2622,-214.775"/>
</g>
<!-- 15&#45;&gt;12 -->
<g id="40" class="edge">
<title>15&#45;&gt;12</title>
<path fill="none" stroke="#000000" d="M110.7584,-216.076C114.4244,-234.6958 114.9809,-257.6254 112.428,-277.5537"/>
<polygon fill="#000000" stroke="#000000" points="108.9345,-277.2351 110.8096,-287.6627 115.8465,-278.3418 108.9345,-277.2351"/>
</g>
<!-- 18 -->
<g id="18" class="node">
<title>18</title>
<polygon fill="none" stroke="#000000" points="141,-72 33,-72 33,0 141,0 141,-72"/>
<text text-anchor="middle" x="87" y="-35" font-family="Times,serif" font-size="5.00" fill="#000000">18: Database</text>
</g>
<!-- 15&#45;&gt;18 -->
<g id="44" class="edge">
<title>15&#45;&gt;18</title>
<path fill="none" stroke="#000000" d="M63.1904,-143.6627C59.5535,-125.0027 59.026,-102.0673 61.608,-82.1671"/>
<polygon fill="#000000" stroke="#000000" points="65.0985,-82.5068 63.2416,-72.076 58.1884,-81.3881 65.0985,-82.5068"/>
</g>
<!-- 18&#45;&gt;15 -->
<g id="44" class="edge">
<title>18&#45;&gt;15</title>
<path fill="none" stroke="#000000" d="M110.7584,-72.076C114.4244,-90.6958 114.9809,-113.6254 112.428,-133.5537"/>
<polygon fill="#000000" stroke="#000000" points="108.9345,-133.2351 110.8096,-143.6627 115.8465,-134.3418 108.9345,-133.2351"/>
</g>
<!-- 8&#45;&gt;12 -->
<g id="32" class="edge">
<title>8&#45;&gt;12</title>
<path fill="none" stroke="#000000" d="M245.6489,-216.0898C220.9964,-239.4966 182.9237,-269.7095 149.5785,-292.2101"/>
<polygon fill="#000000" stroke="#000000" points="147.6146,-289.3128 141.2139,-297.7556 151.4826,-295.1471 147.6146,-289.3128"/>
</g>
</g>
</svg>
