<?xml version="1.0" encoding="UTF-8" standalone="no"?>
<!DOCTYPE svg PUBLIC "-//W3C//DTD SVG 1.1//EN"
 "http://www.w3.org/Graphics/SVG/1.1/DTD/svg11.dtd">
<!-- Generated by graphviz version 2.40.1 (20161225.0304)
 -->
<!-- Title: %3 Pages: 1 -->
<svg width="616pt" height="434pt"
 viewBox="0.00 0.00 616.00 434.00" xmlns="http://www.w3.org/2000/svg" xmlns:xlink="http://www.w3.org/1999/xlink">
<g id="graph0" class="graph" transform="scale(1 1) rotate(0) translate(4 430)">
<title>%3</title>
<polygon fill="#ffffff" stroke="transparent" points="-4,4 -4,-430 612,-430 612,4 -4,4"/>
<g id="clust1" class="cluster">
<title>cluster_enterprise</title>
<polygon fill="none" stroke="#000000" points="8,-8 8,-418 240,-418 240,-8 8,-8"/>
</g>
<g id="clust2" class="cluster">
<title>cluster_group_1</title>
<polygon fill="none" stroke="#000000" points="262,-152 262,-274 600,-274 600,-152 262,-152"/>
</g>
<!-- 1 -->
<g id="1" class="node">
<title>1</title>
<polygon fill="none" stroke="#000000" points="215,-393 107,-393 107,-321 215,-321 215,-393"/>
<text text-anchor="middle" x="161" y="-356" font-family="Times,serif" font-size="5.00" fill="#000000">1: Andy</text>
</g>
<!-- 2 -->
<g id="2" class="node">
<title>2</title>
<polygon fill="none" stroke="#000000" points="141,-249 33,-249 33,-177 141,-177 141,-249"/>
<text text-anchor="middle" x="87" y="-212" font-family="Times,serif" font-size="5.00" fill="#000000">2: Geordie</text>
</g>
<!-- 1&#45;&gt;2 -->
<g id="12" class="edge">
<title>1&#45;&gt;2</title>
<path fill="none" stroke="#000000" d="M118.5171,-320.6627C105.1697,-301.8316 92.7514,-278.6461 85.1235,-258.6202"/>
<polygon fill="#000000" stroke="#000000" points="88.3896,-257.3568 81.7807,-249.076 81.7831,-259.6708 88.3896,-257.3568"/>
</g>
<!-- 3 -->
<g id="3" class="node">
<title>3</title>
<polygon fill="none" stroke="#000000" points="178,-105 70,-105 70,-33 178,-33 178,-105"/>
<text text-anchor="middle" x="124" y="-68" font-family="Times,serif" font-size="5.00" fill="#000000">3: Report Checker</text>
</g>
<!-- 1&#45;&gt;3 -->
<g id="11" class="edge">
<title>1&#45;&gt;3</title>
<path fill="none" stroke="#000000" d="M167.9713,-320.8364C172.283,-298.4697 177,-274 177,-274 177,-274 177,-152 177,-152 177,-152 165.037,-133.2654 152.4781,-113.5978"/>
<polygon fill="#000000" stroke="#000000" points="155.4242,-111.7081 147.0924,-105.1636 149.5244,-115.4755 155.4242,-111.7081"/>
</g>
<!-- 18 -->
<g id="18" class="node">
<title>18</title>
<polygon fill="none" stroke="#000000" points="575,-249 467,-249 467,-177 575,-177 575,-249"/>
<text text-anchor="middle" x="521" y="-212" font-family="Times,serif" font-size="5.00" fill="#000000">18: JFK</text>
</g>
<!-- 1&#45;&gt;18 -->
<g id="22" class="edge">
<title>1&#45;&gt;18</title>
<path fill="none" stroke="#000000" d="M215.3015,-346.2343C305.0764,-323.7765 467,-274 467,-274 467,-274 479.0378,-265.8411 492.5474,-255.491"/>
<polygon fill="#000000" stroke="#000000" points="494.8782,-258.1112 500.5918,-249.189 490.5613,-252.6008 494.8782,-258.1112"/>
</g>
<!-- 19 -->
<g id="19" class="node">
<title>19</title>
<polygon fill="none" stroke="#000000" points="395,-249 287,-249 287,-177 395,-177 395,-249"/>
<text text-anchor="middle" x="341" y="-212" font-family="Times,serif" font-size="5.00" fill="#000000">19: SFTP Server</text>
</g>
<!-- 1&#45;&gt;19 -->
<g id="20" class="edge">
<title>1&#45;&gt;19</title>
<path fill="none" stroke="#000000" d="M206.4216,-320.6627C231.2445,-300.8044 262.1203,-276.1038 288.0342,-255.3726"/>
<polygon fill="#000000" stroke="#000000" points="290.2828,-258.056 295.905,-249.076 285.9099,-252.5899 290.2828,-258.056"/>
</g>
<!-- 2&#45;&gt;1 -->
<g id="13" class="edge">
<title>2&#45;&gt;1</title>
<path fill="none" stroke="#000000" d="M129.2974,-249.076C142.6534,-267.8667 155.0981,-291.0464 162.7702,-311.1015"/>
<polygon fill="#000000" stroke="#000000" points="159.5141,-312.3924 166.1362,-320.6627 166.1169,-310.0679 159.5141,-312.3924"/>
</g>
<!-- 2&#45;&gt;3 -->
<g id="14" class="edge">
<title>2&#45;&gt;3</title>
<path fill="none" stroke="#000000" d="M96.3367,-176.6627C101.1532,-157.9171 107.0785,-134.8568 112.2079,-114.8934"/>
<polygon fill="#000000" stroke="#000000" points="115.6317,-115.6324 114.7305,-105.076 108.8519,-113.8903 115.6317,-115.6324"/>
</g>
<!-- 18&#45;&gt;1 -->
<g id="21" class="edge">
<title>18&#45;&gt;1</title>
<path fill="none" stroke="#000000" d="M466.9603,-231.4676C431.2635,-249.4214 395,-274 395,-274 395,-274 295.1526,-304.6938 224.9912,-328.7507"/>
<polygon fill="#000000" stroke="#000000" points="223.6112,-325.5244 215.3017,-332.0973 225.8964,-332.1409 223.6112,-325.5244"/>
</g>
</g>
</svg>
