<?xml version="1.0" encoding="UTF-8" standalone="no"?>
<!DOCTYPE svg PUBLIC "-//W3C//DTD SVG 1.1//EN"
 "http://www.w3.org/Graphics/SVG/1.1/DTD/svg11.dtd">
<!-- Generated by graphviz version 2.40.1 (20161225.0304)
 -->
<!-- Title: %3 Pages: 1 -->
<svg width="701pt" height="449pt"
 viewBox="0.00 0.00 701.00 449.00" xmlns="http://www.w3.org/2000/svg" xmlns:xlink="http://www.w3.org/1999/xlink">
<g id="graph0" class="graph" transform="scale(1 1) rotate(0) translate(4 445)">
<title>%3</title>
<polygon fill="#ffffff" stroke="transparent" points="-4,4 -4,-445 697,-445 697,4 -4,4"/>
<g id="clust1" class="cluster">
<title>cluster_enterprise</title>
<polygon fill="none" stroke="#000000" points="11,-8 11,-298 685,-298 685,-8 11,-8"/>
</g>
<!-- 2 -->
<g id="2" class="node">
<title>2</title>
<polygon fill="none" stroke="#000000" points="492,-273 396,-273 396,-177 492,-177 492,-273"/>
<text text-anchor="middle" x="444" y="-224" font-family="Times,serif" font-size="5.00" fill="#000000">2: Customer Service Staff</text>
</g>
<!-- 4 -->
<g id="4" class="node">
<title>4</title>
<polygon fill="none" stroke="#000000" points="411,-105 303,-105 303,-33 411,-33 411,-105"/>
<text text-anchor="middle" x="357" y="-68" font-family="Times,serif" font-size="5.00" fill="#000000">4: Mainframe Banking System</text>
</g>
<!-- 2&#45;&gt;4 -->
<g id="24" class="edge">
<title>2&#45;&gt;4</title>
<path fill="none" stroke="#000000" d="M417.1872,-176.9219C406.0168,-156.8923 393.116,-133.7598 382.1302,-114.061"/>
<polygon fill="#000000" stroke="#000000" points="385.1579,-112.3042 377.2304,-105.2753 379.0444,-115.7137 385.1579,-112.3042"/>
</g>
<!-- 3 -->
<g id="3" class="node">
<title>3</title>
<polygon fill="none" stroke="#000000" points="660,-273 564,-273 564,-177 660,-177 660,-273"/>
<text text-anchor="middle" x="612" y="-224" font-family="Times,serif" font-size="5.00" fill="#000000">3: Back Office Staff</text>
</g>
<!-- 3&#45;&gt;4 -->
<g id="27" class="edge">
<title>3&#45;&gt;4</title>
<path fill="none" stroke="#000000" d="M563.7367,-195.4742C522.9919,-170.548 464.3608,-134.6796 419.9362,-107.5021"/>
<polygon fill="#000000" stroke="#000000" points="421.6071,-104.4213 411.2502,-102.1884 417.954,-110.3926 421.6071,-104.4213"/>
</g>
<!-- 5 -->
<g id="5" class="node">
<title>5</title>
<polygon fill="none" stroke="#000000" points="144,-105 36,-105 36,-33 144,-33 144,-105"/>
<text text-anchor="middle" x="90" y="-68" font-family="Times,serif" font-size="5.00" fill="#000000">5: E&#45;mail System</text>
</g>
<!-- 1 -->
<g id="1" class="node">
<title>1</title>
<polygon fill="none" stroke="#000000" points="228,-441 132,-441 132,-345 228,-345 228,-441"/>
<text text-anchor="middle" x="180" y="-392" font-family="Times,serif" font-size="5.00" fill="#000000">1: Personal Banking Customer</text>
</g>
<!-- 5&#45;&gt;1 -->
<g id="22" class="edge">
<title>5&#45;&gt;1</title>
<path fill="none" stroke="#000000" d="M59.7809,-105.2629C33.635,-136.638 0,-177 0,-177 0,-177 0,-298 0,-298 0,-298 70.0998,-334.9971 122.8073,-362.815"/>
<polygon fill="#000000" stroke="#000000" points="121.2858,-365.9695 131.7633,-367.5417 124.5531,-359.7788 121.2858,-365.9695"/>
</g>
<!-- 6 -->
<g id="6" class="node">
<title>6</title>
<polygon fill="none" stroke="#000000" points="324,-261 216,-261 216,-189 324,-189 324,-261"/>
<text text-anchor="middle" x="270" y="-224" font-family="Times,serif" font-size="5.00" fill="#000000">6: ATM</text>
</g>
<!-- 6&#45;&gt;4 -->
<g id="26" class="edge">
<title>6&#45;&gt;4</title>
<path fill="none" stroke="#000000" d="M290.1782,-188.8184C302.5966,-166.5509 318.6153,-137.8278 331.8556,-114.0866"/>
<polygon fill="#000000" stroke="#000000" points="334.9667,-115.6937 336.7807,-105.2553 328.8532,-112.2842 334.9667,-115.6937"/>
</g>
<!-- 7 -->
<g id="7" class="node">
<title>7</title>
<polygon fill="none" stroke="#000000" points="144,-261 36,-261 36,-189 144,-189 144,-261"/>
<text text-anchor="middle" x="90" y="-224" font-family="Times,serif" font-size="5.00" fill="#000000">7: Internet Banking System</text>
</g>
<!-- 7&#45;&gt;4 -->
<g id="20" class="edge">
<title>7&#45;&gt;4</title>
<path fill="none" stroke="#000000" d="M144.0314,-193.4311C187.3167,-168.1408 248.1264,-132.6115 293.6913,-105.9893"/>
<polygon fill="#000000" stroke="#000000" points="295.7228,-108.8561 302.5914,-100.7893 292.1914,-102.8121 295.7228,-108.8561"/>
</g>
<!-- 7&#45;&gt;5 -->
<g id="21" class="edge">
<title>7&#45;&gt;5</title>
<path fill="none" stroke="#000000" d="M90,-188.8184C90,-166.9433 90,-138.8381 90,-115.3462"/>
<polygon fill="#000000" stroke="#000000" points="93.5001,-115.2553 90,-105.2553 86.5001,-115.2553 93.5001,-115.2553"/>
</g>
<!-- 1&#45;&gt;2 -->
<g id="23" class="edge">
<title>1&#45;&gt;2</title>
<path fill="none" stroke="#000000" d="M228.2367,-367.5417C281.5549,-339.4016 360,-298 360,-298 360,-298 372.5187,-287.1206 387.8906,-273.7618"/>
<polygon fill="#000000" stroke="#000000" points="390.3714,-276.2428 395.6236,-267.0414 385.7797,-270.9592 390.3714,-276.2428"/>
</g>
<!-- 1&#45;&gt;6 -->
<g id="25" class="edge">
<title>1&#45;&gt;6</title>
<path fill="none" stroke="#000000" d="M205.7904,-344.8579C218.4008,-321.3186 233.4888,-293.1542 245.8696,-270.0433"/>
<polygon fill="#000000" stroke="#000000" points="249.0077,-271.5973 250.6448,-261.1297 242.8374,-268.2917 249.0077,-271.5973"/>
</g>
<!-- 1&#45;&gt;7 -->
<g id="19" class="edge">
<title>1&#45;&gt;7</title>
<path fill="none" stroke="#000000" d="M154.2096,-344.8579C141.5992,-321.3186 126.5112,-293.1542 114.1304,-270.0433"/>
<polygon fill="#000000" stroke="#000000" points="117.1626,-268.2917 109.3552,-261.1297 110.9923,-271.5973 117.1626,-268.2917"/>
</g>
</g>
</svg>
