<?xml version="1.0" encoding="UTF-8" standalone="no"?>
<!DOCTYPE svg PUBLIC "-//W3C//DTD SVG 1.1//EN"
 "http://www.w3.org/Graphics/SVG/1.1/DTD/svg11.dtd">
<!-- Generated by graphviz version 2.40.1 (20161225.0304)
 -->
<!-- Title: %3 Pages: 1 -->
<svg width="404pt" height="425pt"
 viewBox="0.00 0.00 404.00 425.00" xmlns="http://www.w3.org/2000/svg" xmlns:xlink="http://www.w3.org/1999/xlink">
<g id="graph0" class="graph" transform="scale(1 1) rotate(0) translate(4 421)">
<title>%3</title>
<polygon fill="#ffffff" stroke="transparent" points="-4,4 -4,-421 400,-421 400,4 -4,4"/>
<g id="clust1" class="cluster">
<title>cluster_enterprise</title>
<polygon fill="none" stroke="#000000" points="8,-143 8,-409 346,-409 346,-143 8,-143"/>
</g>
<!-- 4 -->
<g id="4" class="node">
<title>4</title>
<polygon fill="none" stroke="#000000" points="141,-240 33,-240 33,-168 141,-168 141,-240"/>
<text text-anchor="middle" x="87" y="-203" font-family="Times,serif" font-size="5.00" fill="#000000">4: Mainframe Banking System</text>
</g>
<!-- 5 -->
<g id="5" class="node">
<title>5</title>
<polygon fill="none" stroke="#000000" points="321,-240 213,-240 213,-168 321,-168 321,-240"/>
<text text-anchor="middle" x="267" y="-203" font-family="Times,serif" font-size="5.00" fill="#000000">5: E&#45;mail System</text>
</g>
<!-- 1 -->
<g id="1" class="node">
<title>1</title>
<polygon fill="none" stroke="#000000" points="396,-96 300,-96 300,0 396,0 396,-96"/>
<text text-anchor="middle" x="348" y="-47" font-family="Times,serif" font-size="5.00" fill="#000000">1: Personal Banking Customer</text>
</g>
<!-- 5&#45;&gt;1 -->
<g id="22" class="edge">
<title>5&#45;&gt;1</title>
<path fill="none" stroke="#000000" d="M285.7866,-167.8184C295.435,-149.2363 307.4176,-126.1587 318.2833,-105.2321"/>
<polygon fill="#000000" stroke="#000000" points="321.5206,-106.5925 323.0226,-96.1047 315.3081,-103.3668 321.5206,-106.5925"/>
</g>
<!-- 7 -->
<g id="7" class="node">
<title>7</title>
<polygon fill="none" stroke="#000000" points="321,-384 213,-384 213,-312 321,-312 321,-384"/>
<text text-anchor="middle" x="267" y="-347" font-family="Times,serif" font-size="5.00" fill="#000000">7: Internet Banking System</text>
</g>
<!-- 7&#45;&gt;4 -->
<g id="20" class="edge">
<title>7&#45;&gt;4</title>
<path fill="none" stroke="#000000" d="M221.5784,-311.6627C196.7555,-291.8044 165.8797,-267.1038 139.9658,-246.3726"/>
<polygon fill="#000000" stroke="#000000" points="142.0901,-243.5899 132.095,-240.076 137.7172,-249.056 142.0901,-243.5899"/>
</g>
<!-- 7&#45;&gt;5 -->
<g id="21" class="edge">
<title>7&#45;&gt;5</title>
<path fill="none" stroke="#000000" d="M267,-311.6627C267,-293.0027 267,-270.0673 267,-250.1671"/>
<polygon fill="#000000" stroke="#000000" points="270.5001,-250.0759 267,-240.076 263.5001,-250.076 270.5001,-250.0759"/>
</g>
<!-- 1&#45;&gt;7 -->
<g id="19" class="edge">
<title>1&#45;&gt;7</title>
<path fill="none" stroke="#000000" d="M352.5527,-96.0566C354.785,-119.6196 357,-143 357,-143 357,-143 357,-240 357,-240 357,-240 328.6569,-274.0117 303.7819,-303.8617"/>
<polygon fill="#000000" stroke="#000000" points="300.9322,-301.8142 297.2191,-311.7371 306.3097,-306.2955 300.9322,-301.8142"/>
</g>
</g>
</svg>
